PathFileType	4	(X/Y/Z)	E:\Qualisys_Data\Carbon_Farble_Plate\Data\Amateur_Runner\S14\T1\S14T1V25_c3d.trc
DataRate	CameraRate	NumFrames	NumMarkers	Units	OrigDataRate	OrigDataStartFrame	OrigNumFrames
200.000000	200.000000	4	39	mm	200.000000	151	303
Frame#	Time	LSHO			RSHO			LICST			RICST			LASIS			LHEEL			RASIS			LTROC			RTROC			SACR			LTH1			LSK4			LTH2			LTH3			RHM5			LSK2			LTH4			RTH1			LTOE			RTH2			RTH3			RTH4			LLEP			RLEP			LSK1			LSK3			RSK1			LHM5			RSK2			LFT1			RSK3			RSK4			LLME			RLME			RTOE			RHEEL			RFT1			RFT2			LFT2			
		X1	Y1	Z1	X2	Y2	Z2	X3	Y3	Z3	X4	Y4	Z4	X5	Y5	Z5	X6	Y6	Z6	X7	Y7	Z7	X8	Y8	Z8	X9	Y9	Z9	X10	Y10	Z10	X11	Y11	Z11	X12	Y12	Z12	X13	Y13	Z13	X14	Y14	Z14	X15	Y15	Z15	X16	Y16	Z16	X17	Y17	Z17	X18	Y18	Z18	X19	Y19	Z19	X20	Y20	Z20	X21	Y21	Z21	X22	Y22	Z22	X23	Y23	Z23	X24	Y24	Z24	X25	Y25	Z25	X26	Y26	Z26	X27	Y27	Z27	X28	Y28	Z28	X29	Y29	Z29	X30	Y30	Z30	X31	Y31	Z31	X32	Y32	Z32	X33	Y33	Z33	X34	Y34	Z34	X35	Y35	Z35	X36	Y36	Z36	X37	Y37	Z37	X38	Y38	Z38	X39	Y39	Z39	

152	0.755	309.7660217285156	1454.961059570312	-513.6295166015625	255.0882415771484	1449.79541015625	-226.3436431884766	258.3661499023438	996.3219604492188	-503.6589050292969	256.907958984375	1006.240051269531	-232.3634033203125	291.7137145996094	943.32373046875	-477.5643005371094	-345.8741149902344	494.4679260253906	-388.94775390625	283.0221557617188	962.5919189453124	-250.6937255859375	131.8276062011719	895.0095825195312	-524.5123901367188	147.7380676269531	910.438720703125	-199.1710205078125	118.9852294921875	1010.350524902344	-378.0000915527344	137.8251342773438	662.4927978515625	-519.5990600585938	-170.7674407958984	522.3289184570312	-472.7956237792969	64.29840087890625	690.0408935546875	-498.9741516113281	110.7097778320312	567.6696166992188	-498.5860290527344	593.7822875976562	126.686279296875	-215.0411987304688	-75.88970947265625	545.681396484375	-493.3436584472656	36.27812957763672	597.1647338867188	-481.8233642578125	349.8176574707031	704.703369140625	-196.1862335205078	-393.9363403320312	241.9593048095703	-427.3736267089844	278.0583801269531	675.447021484375	-181.5125427246094	387.6034851074219	615.8812866210938	-226.16259765625	312.0916137695312	582.1815795898438	-204.1820068359375	48.38578796386719	523.1409301757812	-491.2255859375	366.136474609375	530.0429077148438	-216.5935363769531	-55.15446472167969	465.2360229492188	-491.5621032714844	-153.7765808105469	442.6347045898438	-476.109130859375	414.8970947265625	419.5660095214844	-213.1878356933594	-406.2748718261719	314.8796997070312	-480.3765258789062	332.8593444824219	395.548095703125	-217.4174346923828	-367.2261962890625	481.8941955566406	-361.0379028320312	437.8844604492188	318.676513671875	-224.7917785644531	360.7986755371094	303.5254821777344	-228.9193115234375	-330.5772094726562	444.6137390136719	-452.8325500488281	448.2337036132812	136.7886962890625	-246.8962554931641	654.9592895507812	176.1437683105469	-270.9701843261719	410.345703125	88.29673767089844	-303.4181518554688	437.8641662597656	72.38969421386719	-335.7874450683594	422.3301086425781	63.86751174926758	-279.8905029296875	-373.5054016113281	498.7796020507812	-411.382568359375
153	0.76	330.6039428710938	1451.67626953125	-512.70751953125	276.1053466796875	1446.060668945312	-225.3054656982422	279.2173156738281	993.3601684570312	-503.7618103027344	276.525634765625	1003.352600097656	-232.0286254882812	312.7711791992188	940.871826171875	-477.657470703125	-318.5478515625	502.8920288085938	-388.8425903320312	302.3262634277344	960.3087768554688	-251.4656982421875	153.7047882080078	890.6910400390625	-525.878173828125	167.8799743652344	906.8167724609376	-199.7401275634766	139.1999816894531	1006.530822753906	-378.5000305175781	163.3386840820312	657.7973022460938	-519.744140625	-142.5877227783203	522.9939575195312	-473.5430603027344	88.93550872802734	684.061767578125	-499.6305236816406	135.9434509277344	563.2694091796875	-498.2720336914062	610.818115234375	121.8260345458984	-216.9484710693359	-47.31015777587891	543.2340087890625	-494.0938415527344	62.32053375244141	590.7324829101562	-482.316162109375	370.2431335449219	702.665771484375	-195.0738983154297	-373.0963745117188	251.0119171142578	-425.55322265625	298.11328125	672.4420776367188	-183.0995025634766	408.9302673339844	614.2531127929688	-226.6423797607422	333.0431213378906	579.5826416015625	-206.0420532226562	76.26351165771484	517.5792236328125	-492.2246398925781	387.3218383789062	527.4933471679688	-218.0129852294922	-29.01019668579102	462.3355102539062	-491.18115234375	-128.254638671875	442.9631652832031	-475.2274780273438	434.648193359375	415.5524291992188	-214.1353454589844	-383.9375305175781	324.3118591308594	-478.9257507324219	352.3513488769531	392.5074768066406	-218.7925567626953	-340.4835205078125	490.4307861328125	-360.5303344726562	456.8350524902344	314.8572082519531	-226.4137268066406	379.0394287109375	300.2432861328125	-231.0736846923828	-304.8223266601562	451.5917053222656	-452.0769653320312	464.8526916503906	132.9519500732422	-249.1488342285156	672.2333374023438	171.3882446289062	-272.6651611328125	426.9840698242188	84.69718170166016	-305.3499145507812	454.3108520507812	68.84068298339844	-338.1744384765625	438.7980041503906	60.09712982177734	-282.0720520019531	-346.0117492675781	507.4849548339844	-411.0842590332031
154	0.765	351.4084167480469	1448.617797851562	-511.8335571289062	297.1876525878906	1441.66552734375	-223.959228515625	299.9109191894531	990.2432250976562	-503.9810485839844	296.460693359375	1000.434143066406	-232.0796203613281	333.7106018066406	938.095947265625	-477.4924011230469	-290.5758972167969	510.5764770507812	-387.9528503417969	323.1407165527344	957.3786010742188	-251.3298034667969	175.6373748779297	885.8474731445312	-527.4430541992188	187.3936920166016	902.6008911132812	-200.7608032226562	159.7346496582031	1001.889221191406	-379.0559387207031	188.8296051025391	652.768798828125	-519.711181640625	-113.9427108764648	523.7032470703125	-473.7413024902344	113.6040191650391	677.8073120117188	-500.0329284667969	164.8636322021484	557.4270629882812	-499.250244140625	626.1404418945312	116.175895690918	-219.1941680908203	-18.0376148223877	540.3487548828125	-495.1341247558594	89.03529357910156	584.29443359375	-482.5038146972656	390.8793334960938	700.2045288085938	-194.6874084472656	-351.52197265625	260.2007446289062	-423.5547485351562	318.4983215332031	669.8208618164062	-184.6745758056641	430.6508178710938	612.5049438476562	-226.6878662109375	354.0033874511719	577.2739868164062	-207.1869506835938	104.2258605957031	511.4768981933594	-492.4418640136719	407.9519653320312	524.7279052734375	-219.042236328125	-2.418453454971313	459.1286926269531	-490.6572265625	-102.2789764404297	443.2419128417969	-474.2748107910156	454.24609375	411.5228271484375	-215.5754089355469	-360.4893798828125	333.1139831542969	-477.0773620605469	371.3414001464844	389.798095703125	-220.0540924072266	-312.3175354003906	498.5811157226562	-359.5550842285156	474.8993530273438	310.6047668457031	-227.9285430908203	397.2255859375	296.9122009277344	-232.6034240722656	-277.9391174316406	458.4296569824219	-451.2623596191406	481.0000610351562	128.2030487060547	-251.0622711181641	688.1265869140625	165.5712585449219	-273.9619140625	443.0311584472656	80.95649719238281	-308.4602966308594	469.3218078613281	64.84587860107422	-340.0054321289062	453.5317687988281	56.58550262451172	-283.948974609375	-317.7044067382812	515.7505493164062	-410.6659851074219
155	0.77	372.2236938476562	1444.731079101562	-511.0228271484375	318.4206848144531	1437.274291992188	-222.9608001708984	320.3094482421875	986.5089111328124	-504.1783752441406	316.5252685546875	996.8430786132812	-231.6215057373047	354.5144348144531	934.8464965820312	-477.5721740722656	-261.1866149902344	517.400634765625	-387.28125	342.7933349609375	954.7774047851562	-251.1074523925781	197.6686553955078	880.9708251953125	-528.8329467773438	206.5870819091797	898.1296997070312	-201.6380615234375	180.2951202392578	997.5223388671876	-379.8197937011719	214.2466888427734	647.4757080078125	-519.5724487304688	-84.65220642089844	523.9066162109375	-474.18994140625	138.4340209960938	670.9918823242188	-500.1270751953125	191.9910583496094	551.5930786132812	-499.0403442382812	640.5255126953125	109.0866546630859	-221.9767761230469	11.64645576477051	537.5117797851562	-495.7534790039062	115.7476348876953	577.0262451171875	-482.4512329101562	412.1945495605469	697.723388671875	-194.0513916015625	-328.4373779296875	268.4291076660156	-421.7804260253906	339.3837890625	667.0282592773438	-186.9976348876953	452.5581359863281	610.8909301757812	-227.0618286132812	375.7174987792969	574.6965942382812	-211.5536804199219	132.7831268310547	505.0741271972656	-493.2154846191406	428.5875549316406	521.4855346679688	-220.4888458251953	24.89011764526367	455.5478515625	-490.8267517089844	-75.39619445800781	443.2501220703125	-473.7067565917969	473.3963623046875	407.34375	-216.5017547607422	-336.1260070800781	341.6929016113281	-475.8019104003906	390.2025451660156	386.728759765625	-221.1819305419922	-283.2603759765625	506.0059204101562	-358.9131469726562	492.4523315429688	306.1256408691406	-229.4701690673828	414.4642333984375	293.4510803222656	-234.2937774658203	-250.0955200195312	464.8121337890625	-450.7300109863281	495.4915466308594	123.792106628418	-253.0011749267578	702.8589477539062	158.40087890625	-275.9814758300781	456.5323486328125	77.2734375	-310.5797424316406	482.9668884277344	60.68520736694336	-342.4544677734375	467.4604187011719	52.09616088867188	-286.0861206054688	-288.2021789550781	523.32861328125	-409.770751953125
